<?xml version="1.0" encoding="utf-8"?><svg xml:space="preserve" viewBox="0 0 100 100" y="0" x="0" xmlns="http://www.w3.org/2000/svg" version="1.1" width="200px" height="200px" xmlns:xlink="http://www.w3.org/1999/xlink" style="width:100%;height:100%;background-size:initial;background-repeat-y:initial;background-repeat-x:initial;background-position-y:initial;background-position-x:initial;background-origin:initial;background-image:initial;background-color:rgb(255, 255, 255);background-clip:initial;background-attachment:initial;animation-play-state:paused" ><g class="ldl-scale" style="transform-origin:50% 50%;transform:rotate(0deg) scale(0.8, 0.8);animation-play-state:paused" ><path stroke-miterlimit="10" stroke-linejoin="round" stroke-linecap="round" stroke-width="3.5" stroke="#333" fill="#e0e0e0" d="M79.586 83.941c-10.518 8.078-48.655 8.078-59.173 0-2.141-1.644-2.681-4.656-1.409-7.037l29.339-54.967c.707-1.325 2.607-1.325 3.314 0l29.339 54.967c1.271 2.382.731 5.393-1.41 7.037z" style="stroke:rgb(51, 51, 51);fill:rgb(224, 224, 224);animation-play-state:paused" ></path>
<path stroke-miterlimit="10" stroke-linejoin="round" stroke-linecap="round" stroke-width="3.5" stroke="#333" fill="#e0e0e0" d="M51.657 21.937c-.707-1.325-2.607-1.325-3.314 0L33.716 49.342A257.255 257.255 0 0 0 59.724 37.05l-8.067-15.113z" style="stroke:rgb(51, 51, 51);fill:rgb(224, 224, 224);animation-play-state:paused" ></path>
<path stroke-miterlimit="10" stroke-linejoin="round" stroke-linecap="round" stroke-width="3.5" stroke="#333" fill="#e15b64" d="M59.724 37.05a257.255 257.255 0 0 1-26.008 12.292l-7.433 13.926a334.99 334.99 0 0 0 38.238-17.231l-4.797-8.987z" style="stroke:rgb(51, 51, 51);fill:rgb(225, 91, 100);animation-play-state:paused" ></path>
<path stroke-miterlimit="10" stroke-linejoin="round" stroke-linecap="round" stroke-width="3.5" stroke="#333" fill="#e15b64" d="M70.342 56.944c-16.156 9.813-33.425 17.84-51.833 24.034.285 1.147.915 2.203 1.905 2.963 2.151 1.652 5.469 2.96 9.457 3.937 15.777-6.161 30.908-13.4 45.371-21.755l-4.9-9.179z" style="stroke:rgb(51, 51, 51);fill:rgb(225, 91, 100);animation-play-state:paused" ></path>
<path stroke-miterlimit="10" stroke-linejoin="round" stroke-linecap="round" stroke-width="3.5" stroke="#333" fill="#e15b64" d="M79.586 83.941c2.141-1.644 2.681-4.656 1.409-7.037l-.314-.589a256.391 256.391 0 0 1-22.062 13.336c8.959-.735 16.965-2.635 20.967-5.71z" style="stroke:rgb(51, 51, 51);fill:rgb(225, 91, 100);animation-play-state:paused" ></path>
<path stroke-miterlimit="10" stroke-linejoin="round" stroke-linecap="round" stroke-width="3.5" stroke="#000" opacity=".2" d="M80.996 76.904L51.657 21.937c-.707-1.325-2.607-1.325-3.314 0l-.844 1.581a198.804 198.804 0 0 1 3.235 7.753c8.149 20.8 12.115 41.153 12.087 57.939 7.208-.931 13.402-2.684 16.766-5.268 2.14-1.645 2.68-4.656 1.409-7.038z" style="animation-play-state:paused" ></path>
<circle stroke-miterlimit="10" stroke-linecap="round" stroke-width="3.5" stroke="#333" fill="#e15b64" r="8.833" cy="18.833" cx="50" style="stroke:rgb(51, 51, 51);fill:rgb(225, 91, 100);animation-play-state:paused" ></circle>
<path stroke-miterlimit="10" stroke-linejoin="round" stroke-linecap="round" stroke-width="3.5" stroke="#000" opacity=".2" d="M42.832 23.979A8.813 8.813 0 0 0 50 27.665a8.833 8.833 0 0 0 8.833-8.833 8.778 8.778 0 0 0-.856-3.773c-3.661 5.698-9.455 9.1-15.145 8.92z" style="animation-play-state:paused" ></path>
</g><!-- generated by https://loading.io/ --></svg>
