<?xml version="1.0" encoding="utf-8"?>
<svg id='bongo-finished' viewBox="0 0 433.8 433.8" xmlns="http://www.w3.org/2000/svg" xmlns:xlink="http://www.w3.org/1999/xlink">
  <defs>
    <symbol id="eye" data-name="eye" viewBox="0 0 19.2 18.7">
      <circle cx="9.4" cy="9.1" r="8"/>
      <path d="M16.3,5.1a1.3,1.3,0,0,1-1.4-.3,7.2,7.2,0,0,0-4.5-2.6A7.2,7.2,0,0,0,5.5,3.5,6.8,6.8,0,0,0,2.8,7.8a6.8,6.8,0,0,0,1,4.8,6.2,6.2,0,0,0,4,2.7,6.1,6.1,0,0,0,4.6-.7,6.7,6.7,0,0,0,2.9-3.7,6.4,6.4,0,0,0-.5-4.5c-.1-.2.8-1,1.5-1.3s2.2,0,2.3.5a9.4,9.4,0,0,1-.2,7.2,9.4,9.4,0,0,1-5.1,5.1,9,9,0,0,1-7,.2A9.6,9.6,0,0,1,1,13.5,9.2,9.2,0,0,1,.4,6.6,8.9,8.9,0,0,1,4.6,1.3,9,9,0,0,1,11.2.2,9.3,9.3,0,0,1,16.7,4C16.9,4.3,17,4.8,16.3,5.1Z"/>
    </symbol>
    <symbol id="paw-pads" data-name="paw-pads" viewBox="0 0 31.4 33.9">
      <path d="M6.8,16a3.7,3.7,0,0,1,1.1,2.8,3.2,3.2,0,0,1-1.6,2.6L5,21.8H4.4a2.8,2.8,0,0,1-1.8.3A4.2,4.2,0,0,1,.2,19.1,7.7,7.7,0,0,1,0,17.6a2.8,2.8,0,0,1,.6-2,3.2,3.2,0,0,1,2.1-.8H4A5,5,0,0,1,6.8,16Zm7.3-4.8a1.8,1.8,0,0,0,.7-.5l.7-.4a3.5,3.5,0,0,0,1.1-1,3.2,3.2,0,0,0,.3-1.4,1.4,1.4,0,0,0-.2-.6,3.4,3.4,0,0,0-.3-2.4,3.2,3.2,0,0,0-2.1-1.5H13.1a4.7,4.7,0,0,0-1.6.4,2,2,0,0,0-.9.9l-.4.6v.4a6.1,6.1,0,0,0-.5,1.2,4.3,4.3,0,0,0,0,1.6,3.5,3.5,0,0,0,.5,2l.7.6a3.3,3.3,0,0,0,1.7.7A3,3,0,0,0,14.1,11.2ZM22.7,7l.6.2h.3A2.3,2.3,0,0,0,25,6.8l.4-.3.6-.3a7.5,7.5,0,0,0,1.5-.9,4.2,4.2,0,0,0,.8-1.2,1.9,1.9,0,0,0,.1-1.5A2.6,2.6,0,0,0,27.5,1,3.5,3.5,0,0,0,23.6.3a3.8,3.8,0,0,0-2,1.5,4.8,4.8,0,0,0-.7,2,3.6,3.6,0,0,0,.9,2.6ZM31,24.1a13.5,13.5,0,0,0-2.2-4.7,36.6,36.6,0,0,0-3.2-3.9,5.3,5.3,0,0,0-5-1.9,10.5,10.5,0,0,0-4.5,2.2A5.6,5.6,0,0,0,13.5,20a15.1,15.1,0,0,0,1.2,6.3c.8,2,1.7,4,2.6,5.9a1.6,1.6,0,0,0,1.5.8,1.7,1.7,0,0,0,1.9.9,17.1,17.1,0,0,0,8.7-4.8,8.2,8.2,0,0,0,1.7-2C31.6,26.3,31.3,25,31,24.1Z" fill="#ef97b0"/>
    </symbol>
  </defs>
  <g id="head" transform="matrix(0.554548, 0, 0, 0.530329, -153.761887, -2.911175)" style="">
    <g class="ldl-scale" style="transform-origin: 50% 50%; transform: rotate(0deg) scale(0.8, 0.8); animation-play-state: paused;" transform="matrix(-0.699394, 1.379614, -1.206636, -0.731334, 258.733917, 196.853577)"/>
    <g id="head__outline">
      <path d="M303.2,186.3c4-7,14.8-20.2,20-26,17-19,34.6-34.9,43-41l12-8s16.6-32,21-33c9-2,33,22,33,22s20-9,79,7c41,11.1,47,14,57,22,7.5,6,18,16,18,16s33.7-19.5,41-15-2,66-2,66,5.9,12.9,11,22c9.1,16.2,13.6,20.2,19,31,3.6,7.2,8.4,28.5,10.5,43.5l-385-62Z" fill="#fff"/>
      <path d="M302.9,186.9c-1.2,3-5.9,12.6-9,18.8l-12.5,25.5-.6-1.2c32.2,4.8,64.4,9.2,96.6,13.6s64.4,8.9,96.5,13.7,64.3,9.7,96.4,14.9,64.1,10.5,96.2,15.8l-5.6,5.5c-1.2-8.5-2.8-17.1-4.8-25.6-1-4.1-2.1-8.4-3.4-12.3l-.5-1.4-.5-1.4-.6-1.3-.7-1.3a59.5,59.5,0,0,0-3.1-5.5c-2.2-3.6-4.7-7.2-7.1-11s-4.8-7.6-7-11.5c-4.5-7.9-8.3-15.9-12.1-24a4,4,0,0,1-.3-2.6h0c1.4-9.1,2.7-18.2,3.7-27.4.5-4.5.9-9.1,1.2-13.7s.4-9.1.2-13.4a26.4,26.4,0,0,0-.8-6,8.1,8.1,0,0,0-.3-1.1c-.1-.3-.2-.4-.1-.3h.3c0,.1.1.1,0,.1h-.6a11.9,11.9,0,0,0-2.5.2,16.3,16.3,0,0,0-3,.7,56.7,56.7,0,0,0-6.2,2.1,212.6,212.6,0,0,0-24.5,11.9h-.1a3.9,3.9,0,0,1-4.7-.6c-4.9-4.7-10-9.4-15.1-13.8a86.6,86.6,0,0,0-7.9-6,46.1,46.1,0,0,0-8.5-4.6c-6-2.6-12.6-4.6-19.2-6.7l-19.8-5.7a324.9,324.9,0,0,0-40-8.9,196.8,196.8,0,0,0-20.2-1.8c-1.7,0-3.4-.1-5.1,0h-2.5l-2.5.2-2.5.2-2.4.4-2.4.5-1.1.3h-.5l-.4.2H433a2.5,2.5,0,0,1-2.6-.7c-4.6-4.6-9.5-9.1-14.5-13.2a82.7,82.7,0,0,0-7.9-5.7L403.9,81a10.8,10.8,0,0,0-4-.9c-.1,0-.3,0-.3.1h0l-.7.5-1.5,1.7c-1,1.2-2,2.6-2.9,3.9s-3.6,5.5-5.3,8.3c-3.5,5.7-6.8,11.4-9.9,17.3h0l-.4.4-10.2,6.6a53.6,53.6,0,0,0-4.9,3.4l-4.6,3.8c-6.2,5.1-12.1,10.6-17.9,16.2s-11.3,11.4-16.7,17.4c-2.7,3-5.3,6.1-7.8,9.2s-5,6.3-7.4,9.5c-4.2,5.6-7,10-5.7,7.1a34.1,34.1,0,0,1,2.1-3.8l3.8-5.6c2.9-4,6.3-8.3,8.5-10.9s4.4-5.2,6.7-7.7l6.9-7.4c4.7-4.9,9.4-9.7,14.3-14.3s9.8-9.3,15-13.7l4-3.2,4.2-2.9,8.3-5.7-.4.4c3-5.9,6.1-11.8,9.4-17.7,1.6-2.9,3.3-5.8,5.1-8.6l2.9-4.3,1.8-2a7.5,7.5,0,0,1,1.3-1.1c.1-.2.6-.4,1-.5l.9-.2h1.7l1.4.2,2.7.8c1.7.7,3.3,1.5,4.8,2.3a84,84,0,0,1,8.5,5.7A175.7,175.7,0,0,1,434,98.5l-2.9-.6.8-.3.7-.2L434,97l2.7-.7,2.7-.5a23,23,0,0,1,2.6-.3l2.7-.3,2.7-.2h5.3a182.1,182.1,0,0,1,21,1.3,332.5,332.5,0,0,1,41.1,8.4l20,5.5c6.7,2,13.4,4,20.1,6.7a65.3,65.3,0,0,1,9.8,5.1c3.1,2.1,5.9,4.3,8.6,6.5,5.4,4.5,10.6,9.2,15.7,14l-4.8-.6c4.1-2.4,8.2-4.6,12.4-6.7s8.6-4.2,13-6c2.3-.9,4.6-1.7,7-2.4a23.4,23.4,0,0,1,3.8-.9,20,20,0,0,1,4.4-.4h1.3l1.5.4a5.1,5.1,0,0,1,1.7.7l.9.7.8.7a8.3,8.3,0,0,1,1.6,2.6,12.7,12.7,0,0,1,.8,2.3,44.6,44.6,0,0,1,1.1,7.7c.2,5,.1,9.7-.1,14.4s-.7,9.5-1.2,14.1c-.9,9.4-2.1,18.6-3.6,27.9l-.3-2.6c3.7,7.9,7.5,15.8,11.8,23.3,2.1,3.7,4.4,7.4,6.8,11s4.9,7.2,7.3,11.1c1.3,2,2.4,4,3.5,6.1a10.9,10.9,0,0,0,.8,1.5l.8,1.8.7,1.7.6,1.7c1.5,4.4,2.6,8.7,3.7,13.1a262,262,0,0,1,5.2,26.4,4.9,4.9,0,0,1-4.1,5.6h-1.5c-32.1-5-64.2-9.9-96.3-15.1s-64.1-10.6-96.1-16.1-64-11.4-96-17.4-63.9-11.9-95.9-17.4h-.1a.8.8,0,0,1-.6-.9v-.2l16.6-32.1C299.8,192.2,304.1,183.9,302.9,186.9Z"/>
    </g>
    <path stroke-miterlimit="10" stroke-linejoin="round" stroke-linecap="round" stroke-width="3.5" stroke="#333" fill="#e0e0e0" d="M 550.616 119.937 C 534.356 132.312 476.121 132.312 460.258 119.937 C 457.029 117.419 456.277 112.806 458.279 109.159 L 504.426 24.962 C 505.539 22.932 508.439 22.932 509.487 24.962 L 552.94 109.159 C 554.823 112.808 553.925 117.419 550.616 119.937 Z" style="stroke:rgb(51, 51, 51);fill:rgb(224, 224, 224);animation-play-state:paused" transform="matrix(0.988937, 0.155112, -0.141859, 0.988937, 16.420897, -77.571257)"/>
    <path stroke-miterlimit="10" stroke-linejoin="round" stroke-linecap="round" stroke-width="3.5" stroke="#333" fill="#e0e0e0" d="M 513.955 24.594 C 512.907 22.564 510.005 22.564 508.894 24.594 L 485.887 66.572 C 499.552 61.043 512.911 54.757 525.901 47.743 L 513.955 24.594 Z" style="stroke:rgb(51, 51, 51);fill:rgb(224, 224, 224);animation-play-state:paused" transform="matrix(0.988937, 0.155112, -0.141859, 0.988937, 11.955207, -77.974357)"/>
    <path stroke-miterlimit="10" stroke-linejoin="round" stroke-linecap="round" stroke-width="3.5" stroke="#333" fill="#e15b64" d="M 522.666 47.116 C 509.678 54.13 496.316 60.416 482.651 65.945 L 470.959 87.276 C 491.073 79.709 510.716 70.894 529.772 60.88 L 522.666 47.116 Z" style="stroke:rgb(51, 51, 51);fill:rgb(225, 91, 100);animation-play-state:paused" transform="matrix(0.988937, 0.155112, -0.141859, 0.988937, 15.06804, -76.869288)"/>
    <path stroke-miterlimit="10" stroke-linejoin="round" stroke-linecap="round" stroke-width="3.5" stroke="#333" fill="#e15b64" d="M 533.538 77.472 C 508.628 92.502 482.061 104.799 453.8 114.287 C 454.207 116.044 455.144 117.661 456.637 118.825 C 459.881 121.354 464.915 123.358 470.981 124.855 C 495.223 115.418 518.506 104.33 540.795 91.531 L 533.538 77.472 Z" style="stroke:rgb(51, 51, 51);fill:rgb(225, 91, 100);animation-play-state:paused" transform="matrix(0.988937, 0.155112, -0.141859, 0.988937, 19.852704, -76.017612)"/>
    <path stroke-miterlimit="10" stroke-linejoin="round" stroke-linecap="round" stroke-width="3.5" stroke="#333" fill="#e15b64" d="M 544.304 124.116 C 547.613 121.599 548.512 116.986 546.629 113.338 L 546.164 112.436 C 535.166 119.807 523.812 126.625 512.149 132.865 C 525.846 131.739 538.118 128.827 544.304 124.116 Z" style="stroke:rgb(51, 51, 51);fill:rgb(225, 91, 100);animation-play-state:paused" transform="matrix(0.988937, 0.155112, -0.141859, 0.988937, 23.261241, -80.83297)"/>
    <path stroke-miterlimit="10" stroke-linejoin="round" stroke-linecap="round" stroke-width="3.5" stroke="#000" opacity=".2" d="M 552.779 112.598 L 509.325 28.401 C 508.277 26.371 505.377 26.371 504.265 28.401 L 502.936 30.823 C 504.605 34.746 506.186 38.705 507.687 42.699 C 519.62 74.56 525.177 105.736 524.724 131.447 C 535.753 130.021 545.254 127.337 550.454 123.378 C 553.761 120.858 554.66 116.247 552.779 112.598 Z" style="animation-play-state:paused" transform="matrix(0.988937, 0.155112, -0.141859, 0.988937, 17.075148, -81.076421)"/>
    <circle stroke-miterlimit="10" stroke-linecap="round" stroke-width="3.5" stroke="#333" fill="#e15b64" r="13.508" cy="18.832" cx="50" style="stroke:rgb(51, 51, 51);fill:rgb(225, 91, 100);animation-play-state:paused" transform="matrix(0.987397, 0.15487, -0.157931, 0.987992, 468.590698, -5.403848)"/>
    <path stroke-miterlimit="10" stroke-linejoin="round" stroke-linecap="round" stroke-width="3.5" stroke="#000" opacity=".2" d="M 503.351 28.972 C 505.821 32.516 509.862 34.619 514.206 34.619 C 521.656 34.619 527.791 28.561 527.911 21.088 C 527.942 19.088 527.527 17.113 526.695 15.309 C 520.966 24.038 512.034 29.249 503.351 28.972 Z" style="animation-play-state:paused" transform="matrix(0.988937, 0.155112, -0.141859, 0.988937, 9.245933, -79.704503)"/>
    <g id="head__face">
      <g id="eyes">
        <use width="19.2" height="18.7" transform="matrix(1, 0, 0, 1, 474.79998779296875, 195.1999969482422)" xlink:href="#eye"/>
        <use width="19.2" height="18.7" transform="matrix(-0.5099999904632568, -0.8500000238418579, 0.8199999928474426, -0.5, 370.3900146484375, 192.58999633789062)" xlink:href="#eye"/>
      </g>
      <g id="mouth">
        <path d="M399.2,186.3c.9,3.6,2.6,7.8,6,9,6.4,2.3,19-6,19-6s4.1,12.4,10,15,10.7-1.7,16-6" fill="#fff"/>
        <path d="M450.2,198.3c.6,1.2.2,1.9-.2,2.2a36.7,36.7,0,0,1-7.6,4.9,14.9,14.9,0,0,1-4.8,1.4h-1.4l-1.3-.2-1.4-.4-1.3-.6a21.6,21.6,0,0,1-6.4-7.2,52.8,52.8,0,0,1-4-8.3l3.8,1.3a62.3,62.3,0,0,1-7.1,4.1,32.1,32.1,0,0,1-7.9,2.8,13.2,13.2,0,0,1-4.9.2l-1.4-.3a7.5,7.5,0,0,1-1.3-.6,7.9,7.9,0,0,1-2.3-1.6,16.8,16.8,0,0,1-2.9-4,24.1,24.1,0,0,1-1.6-4.2c-.1-.5,1.6-1.3,3-1.4s3.5.2,3.6.6a10.3,10.3,0,0,0,2.6,4.9l.7.5h2.4l1.5-.2a28.4,28.4,0,0,0,6.5-2c2.1-1,4.3-2.1,6.3-3.3h.1a2.5,2.5,0,0,1,3.4.9l.3.5a43.1,43.1,0,0,0,3.2,7.7,19.8,19.8,0,0,0,2.2,3.4,8.1,8.1,0,0,0,2.6,2.6,5,5,0,0,0,3,.7,10.8,10.8,0,0,0,3.7-1,33.4,33.4,0,0,0,7.2-4.3C448.8,197.4,449.5,197.2,450.2,198.3Z"/>
      </g>
    </g>
  </g>
  <g id="paw-right" transform="matrix(0.554548, 0, 0, 0.530329, -140.17952, -3.471401)" style="">
    <g id="paw-right--up">
      <g>
        <path d="M282.2,215.2c-1.6-1.6-12.8-17.9-14-34.3-.1-2.5,1.7-16,12.9-22.4s22.3-1.9,26.2.4c12.2,7.3,21.2,19.1,22.8,22.4" fill="#fff"/>
        <path d="M330,181.2a2.4,2.4,0,0,1-2.6-1.3,71.4,71.4,0,0,0-9.8-10.8,64,64,0,0,0-11.7-8.6,26.3,26.3,0,0,0-6.5-2.3,26.9,26.9,0,0,0-6.9-.6,24.9,24.9,0,0,0-6.7,1.3,20.8,20.8,0,0,0-5.8,3.3,23.1,23.1,0,0,0-7.6,11,32.5,32.5,0,0,0-1.4,6.6,6.6,6.6,0,0,0,.1,1.4l.2,1.8c.1,1.2.4,2.3.6,3.5a65,65,0,0,0,4.8,13.4c1,2.2,2.2,4.3,3.4,6.4a43.1,43.1,0,0,0,3.9,5.9.6.6,0,0,1,0,.6c0,.2-.2.4-.4.7a5.7,5.7,0,0,1-1.5,1.6c-1.3.6-4.1.1-4.6-.6a89.5,89.5,0,0,1-7.2-13.7,63.7,63.7,0,0,1-4.3-14.9,25.7,25.7,0,0,1-.5-4c0-.3-.1-.6-.1-1v-1.2a12.5,12.5,0,0,1,.2-2.1,35.2,35.2,0,0,1,2.4-7.8,28.6,28.6,0,0,1,4.1-6.9,24.6,24.6,0,0,1,6.1-5.5,26.2,26.2,0,0,1,15.5-4.2,28.9,28.9,0,0,1,7.8,1.2l3.8,1.3,1.8.9,1.8,1a78.2,78.2,0,0,1,11.9,9.6,80.2,80.2,0,0,1,9.7,11.8C331.1,179.7,331.4,181,330,181.2Z"/>
      </g>
      <use width="31.4" height="33.93" transform="matrix(0.9952274001442556, -0.09758289810261767, 0.09758289810261767, 0.9952274001442556, 273.20001220703125, 166.10000610351562)" xlink:href="#paw-pads"/>
    </g>
  </g>
  <g id="paw-left" transform="matrix(0.554548, 0, 0, 0.530329, -153.761887, -2.911175)" style="">
    <g id="paw-left--up">
      <g>
        <path d="M545.4,261.9c-7.1-13-12.9-31.1-13.3-37.6-.6-9,0-15.6,5.2-22.2s15-9.8,22.7-8.8a26.7,26.7,0,0,1,17.3,9.4c5.3,5.8,9.4,12.9,11.6,16.6" fill="#fff"/>
        <path d="M588.9,219.2c-1.4.4-2.3-.7-2.8-1.4a93.9,93.9,0,0,0-8.9-12.5c-3.3-3.9-7.1-7-11.7-8.6a24.2,24.2,0,0,0-7.1-1.4,24.5,24.5,0,0,0-7.1.7,27,27,0,0,0-6.6,2.7,21,21,0,0,0-5.2,4.6,20.6,20.6,0,0,0-3.5,6.1,22.2,22.2,0,0,0-1.3,6.9,47.3,47.3,0,0,0,.1,7.5,52.2,52.2,0,0,0,1.4,7.1c1.4,4.8,3.1,9.7,5,14.4a147.7,147.7,0,0,0,6.5,13.9c.4.7-1,2.3-2.4,2.6s-4-.6-4.4-1.4c-2.3-4.8-4.3-9.7-6.1-14.6a128.8,128.8,0,0,1-4.6-15.3c-.3-1.3-.5-2.6-.7-4a16.4,16.4,0,0,1-.2-2.2v-2a57,57,0,0,1,.4-8.2,27.2,27.2,0,0,1,2.3-8.2c.7-1.3,1.4-2.5,2.2-3.7l1.3-1.7,1.4-1.6a28.8,28.8,0,0,1,7-5,27.6,27.6,0,0,1,8-2.5,25.6,25.6,0,0,1,8.3-.2,27.4,27.4,0,0,1,15.1,6.7,50.6,50.6,0,0,1,5.5,5.9,111.3,111.3,0,0,1,8.7,13.2C589.8,217.7,590.3,218.9,588.9,219.2Z"/>
      </g>
      <use width="31.4" height="33.93" transform="matrix(0.9900000095367432, -0.030000001192092896, 0.04000000283122063, 1, 539.8499755859375, 203.52000427246094)" xlink:href="#paw-pads"/>
    </g>
  </g>
</svg>
